<svg xmlns="http://www.w3.org/2000/svg" xmlns:xlink="http://www.w3.org/1999/xlink" width="2.78in" height="2.78in" viewBox="0 0 200 200"><defs><style>.cls-1{fill:none;}.cls-2{clip-path:url(#clip-path);}.cls-3{fill:url(#linear-gradient);}.cls-4{fill:#fff;}.cls-5{clip-path:url(#clip-path-2);}.cls-6{fill:url(#radial-gradient);}</style><clipPath id="clip-path"><polyline class="cls-1" points="246.84 -51.57 246.84 29.16 -53.16 29.16 -53.16 -51.57"/></clipPath><linearGradient id="linear-gradient" x1="100" y1="69.41" x2="100" y2="161.01" gradientUnits="userSpaceOnUse"><stop offset="0" stop-color="#666"/><stop offset="0.23" stop-color="#4c4c4c"/><stop offset="0.53" stop-color="#313131"/><stop offset="0.8" stop-color="#202020"/><stop offset="1" stop-color="#1a1a1a"/></linearGradient><clipPath id="clip-path-2"><path d="M1.36,1.56V198.44H198.64V1.56ZM100,156.63A56.63,56.63,0,1,1,156.63,100,56.69,56.69,0,0,1,100,156.63Z"/></clipPath><radialGradient id="radial-gradient" cx="100" cy="100" r="97.27" gradientUnits="userSpaceOnUse"><stop offset="0" stop-color="#999"/><stop offset="0.06" stop-color="#8a8a8a"/><stop offset="0.29" stop-color="#595959"/><stop offset="0.5" stop-color="#333"/><stop offset="0.7" stop-color="#171717"/><stop offset="0.87" stop-color="#060606"/><stop offset="1"/></radialGradient></defs><title>all-organic-icon</title><g id="Layer_3" data-name="Layer 3"><rect x="-53.16" y="-2.24" width="300" height="508.48"/><g class="cls-2"><path d="M-392.22-9.89-392,1.79l1.12,0V25.83H598.43V1.76l1.65,0,.25-11.68a2.9,2.9,0,0,0-.35-.23l-.79-.44.45-.23.44-.23-.37-.89-.37-.89.23-.74.23-.74-1-.17-1-.17v.4a1.23,1.23,0,0,0,.52.79l.53.39-.47,1-.53-.62-.53-.62.27.65a11.87,11.87,0,0,1,.49,2.18l.22,1.53-1.35,0v.58l-2.23.63L594.61-8l-.19-.28H592.2V-8c0,.14.16.3.35.36l.36.11-.24.72c-.13.4-.36.72-.52.72s-.4-.33-.54-.73a3.84,3.84,0,0,1-.19-1.37l.07-.64-.94.87a3.35,3.35,0,0,1-1.33.86h-.39l0-1.06.66-.43.66-.44-1.35.18-1.35.18L587.23-9,587-9.39l-.55.17L585.9-9l.15.21.21.31L586-8l-.26.56.64-.2.64-.2-.68.77-.68.77L585-7l-.65-.78-1.48.43c-.81.23-1.48.34-1.48.24s-.22,0-.5.16l-.5.35L580-7l-.43-.39v.34a3.17,3.17,0,0,1-.87,1.18,3.05,3.05,0,0,1-1.23.84h-.36l0-.79,0-.79.61-.13.61-.13L577.42-7a5.14,5.14,0,0,0-1.76.3l-.94.35.19.28.19.28-1.29,0a8,8,0,0,0-1.88.16l-.59.19,0-.71,1.11,0,0-.72,1.1.82,0-.28c0-.15.08-.5.11-.76l.06-.48-.82-.6-.82-.6,0-.87.94-.31-.55-.35-.55-.35-1,0-1,0,0,.92.7.21.7.21-.2.61-.2.61-.52-.18-.52-.18,0,.6,0,.6-1.2-2.44h-1.4l-.17,1.5a5.07,5.07,0,0,1-.36,1.66l-.2.16,0-2.06-.62-.22-.62-.22-.15.38a.61.61,0,0,1-.52.37h-.36l.26-.35.26-.35-.84.22-.84.22.26-.35.26-.35,1.81,0,0-1.29h.37a.34.34,0,0,0,.38-.29V-11l-1.48-.43.39-.6.39-.6-.83-.4a3.91,3.91,0,0,1-1.11-.76l-.28-.36.44,1.8-.67.61-.67.61.88.32.88.32-1.26,0-.3.4a3.06,3.06,0,0,0-.33,1.36l0,1h-1.11l0,.58v.58l-.54.28a1.08,1.08,0,0,1-.81.13l-.27-.15-.45.6.37.21.37.21,0,1.21-.41.21-.41.21L558.57-4l-.41-.37h1.08l-.63-.33L558-5.07l.49-1.05-.63.2-.63.2,0-.31c0-.17-.06-.49-.08-.72a1.08,1.08,0,0,0-.39-.68l-.37-.27.47-.16.47-.16,0-.84L556.78-9l-.51-.18-.8.67-.63-.22L554.21-9l1.35-.82L555-10l-.51-.18-1.21.14-1.21.14.2.29.2.29h-.79l0-1L551-10l0-.72-.38.19-.38.19.37.63L551-9,554-9v.64c0,.35,0,.75,0,.89l0,.24-.73,0-.73,0,0,1.18h.37c.2,0,.35.11.32.25a1.77,1.77,0,0,0,0,.51l0,.27.59-.5a2.11,2.11,0,0,1,1.12-.49h.53l0,.71-.53-.19-.53-.18-.9.91.21.89.21.89-.51-.81-.51-.81-.87,0a20.29,20.29,0,0,1-2.2-.3l-1.33-.26-.63.52-.63.52-.83-.07c-.46,0-1.15-.06-1.53,0l-.7,0,.45.49.45.49h-.56a14.38,14.38,0,0,0-1.78.18L541.45-3l.27-.37L542-3.7l1.81,0,0-1-1-.21-2.19-.49-1.18-.28-.42.9.45,0a4,4,0,0,0,.77,0,3.63,3.63,0,0,1,1.07.18l.75.22-.47.24-.47.24-.61-.15-.61-.15-.93.31-.93.3,1.67.07,0,.78h-.37l-.72-.25-1.08-.37.17-.23.17-.23-.41-.23-.41-.23.51-.27.51-.27h-1.21l-.24,1-.24,1h-.63l.19-1,.18-1h-.74l-.21.64-.21.64h-.89l.45-1-1.17,0,.41,1h-.33a.63.63,0,0,1-.49-.41l-.16-.41-1.56.76-6,.34,0-1.65L524.8-5l-.46-.17.46,0,.46,0,0-1.27-1,.3a6.33,6.33,0,0,1-1.33.29h-.37l.24-.32.24-.32-.28-.4-.28-.4-.47,1.6-1.1.07c-.6,0-1.38.07-1.72.08h-.62l-.23.49-.23.49.2.3.2.3,1.81,0v-.32a.35.35,0,0,1,.38-.32h.37l0,1.53-.64.43-.13.09h-.26l0,0L520.4-3l-.33-.19-.33-.19-.25.53-.12.25H519l-.44-.43a2.6,2.6,0,0,0-1.09-.71h-.36v-.68l.46.23L518-4l-.42-.41-.42-.41-.42.22-.42.22.22.7a2.76,2.76,0,0,0,.71,1h-1.68l0-1.49h-.28a6.73,6.73,0,0,0-1.49.61l-1.21.62-1.21-.43-.47.7H510l-.05,0,.24-.61.24-.61h-.83l.12-.52.12-.52L507.9-5.1,506-5.28l.21.51.21.51-.56-.2-.56-.2-.28,1-.28,1h0l-.46-.68-.93.39-.68.29h-.45l-.46-.25-.65-.35-.4.48-.1.12h-.45l-.2-.46-1.08,0,.82-1.28,1.09,0V-5l-.73.32-.73.32-.2-.29L498.9-5l.83-.17.83-.17-.36-.31a2.82,2.82,0,0,0-1.1-.44l-.74-.14.08-1,.08-1L498.13-7h-.46a1.63,1.63,0,0,1-.89-.4l-.43-.39-.23.19-.23.19,1.13.91,1.13.91L498-4.33l-.2,1.24.51.46h-1l.18-.24-.54.24h-1.3l.09-.24.26-.68-.51.14-.51.14.11.63h-2.24l-.25-.09L491.69-3l.23.34h-1.31l-.18-.21L490-3.38l.52,0,2,.06.46-1-1.06-1-1,1.35-2,0-.36.49,1.44,0,0,.34,0,.37-.74-.18L488.44-3v.4h-.51l-.34-.3-.69.3h-.69V-3L485.1-3v.32a.32.32,0,0,1,0,.05h-.61l0-.71,1.28,0,.19-.4a2.52,2.52,0,0,0,.21-.69c0-.16.24-.4.51-.54l.49-.25-.63-.22-.63-.22-1.12.35,0,1h.79l-.24.32-.24.32-1.66,0L483-4.07l-.44-.39-.45.38-.45.37,1.18.38L484-3v.33h-1.11v-.51l-.67.51h-1l-.1-.28-.4.28h-.62l0-.92.09,0,.46.17.47-.15.47-.15-1.86,0,.27.1-.25.17a.77.77,0,0,0-.34.56.33.33,0,0,0,.1.22h-5.76l.23-.12-.23-.54c-.12-.3-.35-.54-.51-.55a4.48,4.48,0,0,0-1.29.66l-.84.55H471l.09-.33.11-.43-1.43.07-.9,0,.17-.07h-.85l-.31-.23-.47-.35-.48.48-.48.48h-.14l0-1,0,0,.23-.24.23-.24h-.27v-.17c0-.18-.07-.32-.16-.32l-.06,0,.11-5a2.91,2.91,0,0,0-.35-.23l-.79-.44.45-.23.45-.23-.37-.89-.37-.89.23-.74.23-.74-1-.17-1-.17v.4a1.23,1.23,0,0,0,.52.79l.53.39-.47,1-.53-.62-.53-.62.27.65a11.86,11.86,0,0,1,.49,2.18l.22,1.53-1.35,0v.58l-2.23.63L460.72-8l-.19-.28h-.22V-8.6H460c-.19,0-.35.08-.35.16a.3.3,0,0,0,.09.15h-1.38V-8c0,.14.16.3.35.36l.36.11-.24.72c-.13.4-.36.72-.52.72s-.4-.33-.54-.73a3.84,3.84,0,0,1-.19-1.37l.07-.64-.94.87a3.35,3.35,0,0,1-1.33.86h-.39l0-1.06.66-.43.66-.44-1.35.18-1.35.18L453.34-9l-.23-.34-.55.17L452-9l.15.21.21.31-.21.46-1,.21-.65.15-.09-.11-.35.1,0-1,.27.09.53.19.53-.36.53-.37.06.09.21-.44.21-.46-.53-.93-.53-.93.19-.26.19-.26h-.37a.85.85,0,0,0-.61.31l-.24.32h.84l-.5,1.28h.79v.34a1.36,1.36,0,0,1-.46.74l-.45.41L450.09-9v-.08h-.4l-.54-.1-.47,1L449-8l.35.2.18-.39v.66l-.59.17c-.81.23-1.48.34-1.48.24s-.22,0-.5.16l-.5.35L446.09-7l-.43-.39v.34a3.17,3.17,0,0,1-.87,1.18,3.05,3.05,0,0,1-1.23.84h-.36l0-.79,0-.79.61-.13.61-.13L443.54-7a5.14,5.14,0,0,0-1.76.3l-.94.35L441-6l.19.28-1.29,0A8,8,0,0,0,438-5.6l-.59.19,0-.71,1.11,0,0-.72,1.1.82,0-.28c0-.15.08-.5.11-.76l.06-.48-.82-.6-.82-.6,0-.87.94-.31-.55-.35-.55-.35-1,0-1,0,0,.92.7.21.7.21-.2.61-.2.61-.52-.18-.46-.16a.64.64,0,0,0-.09-.18.73.73,0,0,0-.41-.33c-.1,0-.08.14,0,.32a.77.77,0,0,0,.39.32l0,.43,0,.6-.27-.55v-.43l-.13.14-.79-1.6h-1.4l-.17,1.5c0,.23-.06.45-.09.65a3,3,0,0,1-.43-.58v-.31l-.62-.22-.35-.12-.25-.3h.12l0-1.29H432a.34.34,0,0,0,.38-.29V-11l-1.48-.43.39-.6.39-.6-.83-.4a3.91,3.91,0,0,1-1.11-.76l-.28-.36.44,1.8-.5.46a6.85,6.85,0,0,0-1.22-.43c-.54-.11-.83-.22-1.26.16-1-.11-2,.28-3-.19-.13.17-.27,0-.4.21-.24-.3-.49.17-.73-.16-.33.32-.66,0-1,.2-.18-.33-.35-.07-.53-.33a1.73,1.73,0,0,1-1.2,0c-.77.47-1.55-.29-2.32.28-.33,0-.66-.16-1,.2-.36-.09-.71-.15-1.06-.26-.22.18-.44.16-.66.43-.33,0-.24-.22-.53-.32-.15.14-.31,0-.46.26-.47-.06-.93-.32-1.39,0-.27-.19-.53-.11-.8-.23l-.06.05h0a.18.18,0,0,0-.19.16h0c-.49-.22-.92.11-1.39.15-.3,0-.67-.22-.93,0a1.5,1.5,0,0,0-1.13-.08c-.82-.43-1.64.25-2.46-.12-.2.29-.66.12-.79.16s-.3.23-.46.26-.25-.07-.4,0-.47.35-.66,0c-.28.28-.57.23-.86.47a2.22,2.22,0,0,0-.6-.27,2.19,2.19,0,0,0-.79.92,1.22,1.22,0,0,0,.25.27L401-10a2.57,2.57,0,0,0-.88-.34l-.4-.44h-.14a.4.4,0,0,0,.05-.17.34.34,0,0,0-.36-.31h-.37v.56a.81.81,0,0,1-.29,0c-.09.26-.39.29-.69.36a1.56,1.56,0,0,0-1.3,0c-.39-.37-.83-.31-1.24-.56l-.48.3a1.84,1.84,0,0,0-1.36-.18c-.47,0-.94,0-1.36,0s-.74-.31-1.07-.09a2.45,2.45,0,0,0-1.81-.39c-1.23-.9-2.7,0-3.95-.78-.38.42-1.09,0-1.32.07s-.55.31-.81.31-.38-.18-.63-.17c-.5,0-.84.46-1.08-.09-.53.39-1,.23-1.5.55a4.57,4.57,0,0,0-.81-.53l.84-.94h-.48a2.54,2.54,0,0,0-1,.27l-.51.27.31.49.14.22a5.11,5.11,0,0,0-.89,1,5.8,5.8,0,0,0,.5.71.63.63,0,0,1-.35.14l-.06-.06,0,0a.83.83,0,0,0-.31-.25,4.19,4.19,0,0,0-1.27-.7l-.54-.8c-.59-.22-1.25.09-1.84-.19-.31.58-1.16.26-1.83.57s-.91.91-1.56,1c-.28-.44.65-.54.15-1a2.24,2.24,0,0,0-2-.11c-.48.23-.53.79-1,.8-.31-.55.14-.89-.13-1.44-.58.28-1-.28-1.51-1a26.77,26.77,0,0,0-2.89-.48c-.16,0-.28.11-.45.09s-.36-.23-.51-.25-.3.11-.45.09a7,7,0,0,0-1-.16,12.52,12.52,0,0,1-1.5-.2,7.7,7.7,0,0,1-1.08-.09c-.17-.05-.42-.35-.61-.38a2.44,2.44,0,0,0-.33,0c-.43,0-.65-.08-1.08-.09a3.63,3.63,0,0,1-1.42-.07l-.6.37c-.19-.21-.42-.18-.66,0a2.55,2.55,0,0,0-1.83-.18,4.89,4.89,0,0,1-.82-.45l-.48.3c-1.63-.35-3.24-.86-5-.31-.6-.34-1.28-.24-1.87-.74-.63.35-1.18.1-1.83.57l-.91-.58a1.22,1.22,0,0,1-1.63-.13,15.82,15.82,0,0,1-2,.65c-.18-.27.21-.37-.13-.69a2.13,2.13,0,0,1-1.47-.41c-.87.47-1.56-.34-2.43.18-1.12-.59-2.43.11-3.52-.66a1.88,1.88,0,0,1-.45.13,1.06,1.06,0,0,0,0-.72,1,1,0,0,1-.94-.33,1.54,1.54,0,0,0-.69,1.29,7.46,7.46,0,0,0-2-.24l-1,0,0,0-.25,0a7.54,7.54,0,0,0-1.18,0c.15.32-.14.68-.12.83s.25.27.27.4-.13.41-.09.62.34.55.33.74c0,.72-.51,1.2-.8,1.83-.43.05-.8-.26-1.19-.48l1.26-.17c-.07-.25,0-.4.16-.47-.12-.81-.79-.89-1.67-.68-.15.72,0,.52.16,1.28a1,1,0,0,0-.72-.14,1.76,1.76,0,0,1,.07,1.5.78.78,0,0,0-.7-.4c-.17-.26-.33-.55-.51-.76-.45-.55-1.17-.32-1.27-1.11-.44,0-.92.34-1.27-.35-.33.13-.09.41-.51.51a2.1,2.1,0,0,0-1.19-.62l.26,0c-.16-.53.34-.54.08-1.14-.54-.2-1.06-.09-1.23.34,0-.07-.06-.15-.08-.23a3.07,3.07,0,0,1-1.87-.62c.43-.38.9-.72.63-1.64A1,1,0,0,0,311.52-16a1.63,1.63,0,0,0-1.62.24c-.43-.15-.85-.43-1.32-.29l-.08-.6c-.52.07-.71-.3-1.37,0a1,1,0,0,0,.6,1.72h0c0,.07.3.51,0,.55-.77,0-1.39-1-2.08-1.55-.84.38-.61,1.33-.82,1.94a2.28,2.28,0,0,0-.59.47l-.06.06-.09,0a2,2,0,0,1-.22-.9,1.82,1.82,0,0,0,.38-.12,2.68,2.68,0,0,0-.21-1,2.46,2.46,0,0,0,0-1,9.13,9.13,0,0,1-2.11-.59c-.43.13,0,.51-.42.64a.43.43,0,0,1,0-.15l.18,0a1.6,1.6,0,0,0-.18-1.34c-.7-.06-.78.34-1.3.4a1.67,1.67,0,0,0,.05.34c-.41,0-.78-.33-1.22-.14A1.9,1.9,0,0,0,299-16c.1.3.48.33.67.72a.77.77,0,0,1,0,.41.84.84,0,0,0-1-.71.88.88,0,0,0-.38,1.17,1.15,1.15,0,0,1-.7.39c-.17-.44.47-.66.05-1.17a2.37,2.37,0,0,1-.57-.64c.51-.72.22-1.75-.84-1.67l-.1-.16c-.52-.15-.45.42-1,.6-.34-.18-.66-.56-1.06-.3-.39.55-.35,1.37-1.23,1,.06.34.18.7,0,1h0a3.1,3.1,0,0,0-.25-1.57c-1.26-.11-1.61,1-1.16,1.56-1,.35-2,1.07-2.76.16-.49-.82-.07-1.39-.89-2.29-.74.58-1.34-.3-1.83.57-.2-.16-.41-.23-.6-.38-.39.27-.93.08-1.44.13-.23,0-.44.21-.69.24-.41.06-1,0-1.32.07s-.44,0-.66,0-.38.32-.59.37c-.43.1-1-.14-1.42-.07s-.76.23-1.14.33c-1.09.28-1.72.47-2.85.83l-2.31.75-2.47-.3c-.1.58-.15,1.24-.49,1.46-.91-.07-1.52-.36-1.39-1.16a1.17,1.17,0,0,1,.43-.48l-3-.36a1.52,1.52,0,0,1-.22,1,2.09,2.09,0,0,1-1.72-.54.82.82,0,0,1,.26-.69l-2.82-.35c-.16.74-.64,1-1.49.75-.05-.34-.22-.61-.28-1h0l-7.14-.88v0a1.41,1.41,0,0,1-1.46-.22l-4.8-.59L246-15a2.15,2.15,0,0,1,.12-.19c1.11.07,1.66.52,1.3,1.61-.43-.08-.39.55-1,.28a.77.77,0,0,1-.61-.4L245-6.34a1.06,1.06,0,0,1,.57,2,1.13,1.13,0,0,1-.78-.24l-.09.77h0a2.51,2.51,0,0,0-2,.33l-.19-.07,0,.15a7.43,7.43,0,0,1-.93.36s-.35-.13-.42-.12-.38.13-.57.2a.17.17,0,0,0,0-.1.18.18,0,0,0-.18-.18.18.18,0,0,0-.18.18.17.17,0,0,0,.14.16l-.7.27h-.14L239.17-3v.38h-1l.14-.93-.67-.18L237-3.9l.42.51.42.51h-1.16v.21l-.88-.06h-.2v-.79l.9-.36-.54-.38-.54-.38h-2v1l.68.22.68.22-.11.41-2-.13-.15.21-.39-.86h-1.35l-.08,1h-1.19l-.15-.11-.07.1a1.13,1.13,0,0,0-.22-.36V-4.32h.36a.35.35,0,0,0,.36-.33V-5l-1.43-.45.36-.68.36-.68-.81-.43A3.82,3.82,0,0,1,227.25-8L227-8.44l.46,2-.63.7-.63.7.86.34.86.34-1.21,0-.28.45a3.39,3.39,0,0,0-.27,1.24h-.66l.09-.62h-.71v.62h-.6c.63-.55.51-1.57-.15-1.58a.17.17,0,0,0-.15-.11.18.18,0,0,0-.18.18h0l-.09,0a.67.67,0,0,0-.17,1.21h-.21l.24.24,0,0h-1.14l-.19-.17-.39.17h-1.06l-.22-.08c.38-.45.62-1-.36-1.36l-.4.07-.16-.07a.67.67,0,0,0-.53.41h0l-.5-.19-.53.08a3,3,0,0,0-.19-.59l.08-.08.22-.22-.44,0a2,2,0,0,0-.25-.33l-.41.36h-.27l.18.07a1.93,1.93,0,0,0-.59,1l-.12,0,.1.16a2.18,2.18,0,0,0,0,.48h-.47V-4l-.72.44v-.8l-.36.22-.36.22.37.69.32.59h-1.39a1.1,1.1,0,0,0-1.94-.81,2.81,2.81,0,0,0,.23.81h-.49a1.08,1.08,0,0,0,0-.23c0-.21-.12-.38-.27-.37a2.53,2.53,0,0,0-.89.48l-.16.12h-5.36L206.21-3V-3.6h-.45a2.29,2.29,0,0,0-1,.34l-.53.33.18.18.11.11h-2.32a.17.17,0,0,0,0-.08.18.18,0,0,0-.18-.18.18.18,0,0,0-.18.18.17.17,0,0,0,0,.08H189.57l0,0,.22-.57h-.31c-.16,0-.45.27-.69.62h-9.94a.36.36,0,0,0,.11-.26.36.36,0,0,0-.36-.36.36.36,0,0,0-.36.36.36.36,0,0,0,.11.26H168.29a3.88,3.88,0,0,1-.86-.41c-.25.24-.43-.08-.69.24-.33-.54-.83.17-1.15-.43-.61.44-1.08-.09-1.65.08-.21-.58-.56-.2-.78-.65a2.82,2.82,0,0,1-1.93-.32c-1.36.58-2.43-.84-3.82-.09-.54,0-1-.41-1.65.08-.55-.24-1.11-.41-1.66-.68-.4.24-.75.15-1.17.54-.52-.09-.34-.42-.79-.65-.28.18-.51,0-.81.32-.74-.21-1.43-.74-2.26-.31-.39-.37-.83-.31-1.24-.56l-.48.3c-.74-.48-1.52,0-2.29-.1-.49,0-1-.51-1.5-.2a2.45,2.45,0,0,0-1.81-.39c-1.23-.9-2.7,0-3.95-.78-.38.42-1.09,0-1.32.07s-.55.31-.81.32-.38-.18-.63-.17c-.5,0-.84.46-1.08-.09-.53.39-1,.23-1.5.55a3.63,3.63,0,0,0-.9-.57,3.58,3.58,0,0,0-1.5,1.31c.12.36.93.91.4,1.09a4.47,4.47,0,0,0-1.9-1.29l-.54-.8c-.59-.22-1.25.09-1.84-.19-.31.58-1.16.26-1.83.57s-.91.91-1.56,1c-.28-.44.65-.54.15-1A2.24,2.24,0,0,0,121-6c-.48.23-.53.79-1,.8-.31-.55.14-.89-.13-1.44-.58.27-1-.28-1.51-1a26.77,26.77,0,0,0-2.89-.48c-.16,0-.28.11-.45.09s-.36-.23-.51-.25-.3.11-.45.09a7,7,0,0,0-1-.16,12.52,12.52,0,0,1-1.5-.2,7.67,7.67,0,0,1-1.08-.09c-.17-.05-.42-.35-.61-.38a2.41,2.41,0,0,0-.33,0c-.43,0-.65-.08-1.08-.09a3.63,3.63,0,0,1-1.42-.07l-.6.37c-.19-.21-.42-.18-.66,0A2.55,2.55,0,0,0,104-8.93a4.9,4.9,0,0,1-.82-.45l-.48.3c-1.63-.35-3.24-.86-5-.31-.6-.34-1.28-.24-1.87-.74-.63.35-1.18.1-1.83.57l-.91-.58a1.22,1.22,0,0,1-1.63-.13,15.89,15.89,0,0,1-2,.65c-.18-.27.21-.37-.13-.69a2.13,2.13,0,0,1-1.47-.41c-.87.47-1.56-.34-2.43.18-1.12-.59-2.43.11-3.52-.66-.66.29-1.25.06-1.92.44a6.24,6.24,0,0,0-2.26-.3,13.85,13.85,0,0,0-2.4,0c.15.32-.14.68-.12.83s.25.27.27.4-.13.41-.09.62.34.55.33.74c0,.72-.51,1.2-.8,1.83-.71.09-1.27-.84-2-.66a1.83,1.83,0,0,1,.19,1.08.63.63,0,0,0-.25.31l.12.14a2.12,2.12,0,0,1-.09.2c-.42-.15-.75-.93-1.12-1.39a1.15,1.15,0,0,0-.4-.31.19.19,0,0,1,0,0l0-.06a.24.24,0,0,0-.13,0h0c-.33-.14-.64-.23-.7-.73-.44,0-.92.34-1.27-.35-.33.13-.09.41-.51.51-.79-.92-1.73-.2-2.18-1.69-1.49.21-2.65-1.94-4.27-.76a5.22,5.22,0,0,0-.91-.32.47.47,0,0,0,0-.35c-.26-.14-1-.24-1,.2a.94.94,0,0,0,.54.32,3.17,3.17,0,0,1-.32.86c-.08.14-.33-.1-.45.09s.3.51,0,.55c-.77,0-1.39-1-2.08-1.55-1.23.56-.15,2.33-1.55,2.48-.6-1.17.19-2,0-3a9.13,9.13,0,0,1-2.11-.59c-.43.13,0,.51-.42.64-.15-.36.27-.57-.18-1-.36.24-.63-.21-1,.25-.44,0-.83-.35-1.29-.14a1.9,1.9,0,0,0-.08,1.38c.08.23.32.31.51.51l-.08,0a.55.55,0,0,0-.42.47c-.46.37-.92,1-1.38,1-.17-.44.47-.66.05-1.17-.87-.67-.87-1.57-1.52-2.48-.52-.15-.45.42-1,.6-.34-.18-.66-.56-1.06-.3-.39.55-.35,1.37-1.23,1,.06.34.18.7,0,1-1.27-.86-3,1.52-4.18.13-.49-.82-.07-1.39-.89-2.29-.74.58-1.34-.3-1.83.57-.2-.16-.41-.23-.6-.38-.39.27-.93.08-1.44.13-.23,0-.44.21-.69.24-.41.06-1,0-1.32.07s-.44,0-.66,0-.38.32-.59.37c-.43.1-1-.14-1.42-.07s-.76.23-1.14.33c-1.09.28-1.72.47-2.85.83S25.56-9.4,24.48-9a9.14,9.14,0,0,0-1.85.85l-.06,0a1.22,1.22,0,0,1-1.63-.13,12.28,12.28,0,0,1-1.77.59L19-8.12a.31.31,0,0,0-.1-.21l-.44-.94c-.19-.42-.29-.9-.81-1.09-.08,0-.09-.3-.1-.46s.11-.48,0-.67c-.42-1-.9-2.05-1.33-3.09a.84.84,0,0,0-1-.59c-1.26.15-2.52.26-3.78.41-.58.07-.68.18-.48.7.31.78.7,1.53,1,2.3.41,1,.8,1.93,1.19,2.9a3.21,3.21,0,0,1-1.64-.3l-.06-.18a7.06,7.06,0,0,0-.53-1.3A7.2,7.2,0,0,1,10.1-13a5.38,5.38,0,0,0-.62-1.24c-.46.29-.32.79-.41,1.2,0,.23-.17.44-.21.67-.19,1.08-.36,2.16-.54,3.24l-1.06,0a13.88,13.88,0,0,0-2.4,0c.15.32-.14.68-.12.83S5-8,5-7.91s-.13.41-.09.62.34.55.33.74c0,.72-.51,1.2-.8,1.83-.71.09-1.27-.84-2-.66a1.77,1.77,0,0,1,0,1.72C2-3.8,1.7-4.59,1.33-5S.16-5.37.06-6.16c-.44,0-.92.34-1.27-.35-.33.13-.09.41-.51.51-.79-.92-1.73-.2-2.18-1.69-1.49.21-2.65-1.94-4.27-.76-.45-.16-.89-.46-1.39-.28a3.58,3.58,0,0,1-.35,1c-.08.14-.33-.1-.45.09s.3.51,0,.55c-.77,0-1.39-1-2.08-1.55-1.23.56-.15,2.33-1.55,2.48-.6-1.17.19-2,0-3a9.15,9.15,0,0,1-2.11-.59c-.43.13,0,.51-.42.64-.15-.36.27-.57-.18-1-.36.24-.63-.21-1,.25-.44,0-.83-.35-1.29-.14a1.9,1.9,0,0,0-.08,1.38c.1.3.48.33.67.72.11.23,0,.55,0,.76-.39-.1-.12-.48-.58-.59-.49.34-1,1.1-1.47,1.1-.17-.44.47-.66.05-1.17-.87-.67-.87-1.57-1.52-2.48-.52-.15-.45.42-1,.6-.34-.18-.66-.56-1.06-.3-.39.55-.35,1.37-1.23,1,.06.34.18.7,0,1-1.27-.86-3,1.51-4.18.13-.49-.82-.07-1.39-.89-2.29-.74.58-1.34-.3-1.83.57-.2-.16-.41-.23-.6-.38-.39.27-.93.08-1.44.13-.23,0-.44.21-.69.24-.41.06-1,0-1.32.07s-.44,0-.66,0-.38.32-.59.37c-.43.1-1-.14-1.42-.07s-.76.23-1.14.33c-1.09.28-1.72.47-2.85.83S-44.94-7.49-46-7.1A7.2,7.2,0,0,0-48.75-5.6c-.64,0-1.79,0-2.19.79l-.16-.07a2.5,2.5,0,0,0,.28-.95l-1.06-.38c-.17.47-.43,1-.26,1.3l.31.11a2.17,2.17,0,0,1-.55.12c-.44.38-.15,1-.62,1.34a.77.77,0,0,1-.45-.09l.36-1c-.54-1.08-1.7-.44-1.69.66a7.17,7.17,0,0,1-.84.34,1,1,0,0,0-1.24-.2,6,6,0,0,0-.63-.28A2.55,2.55,0,0,0-59-4.2c0-.91-1.72-1.33-1.72.07A7.37,7.37,0,0,1-64.37-5c-.25.24-.43-.08-.69.24a.39.39,0,0,0-.31-.21A1.55,1.55,0,0,0-66-5.19a1,1,0,0,0-.18.12l-.05-.07c-.61.44-1.08-.09-1.65.08-.21-.58-.56-.2-.78-.65A2.82,2.82,0,0,1-70.57-6c-1.36.58-2.43-.84-3.82-.09a2.37,2.37,0,0,1-.37-.07,1.27,1.27,0,0,0-.7-.35.94.94,0,0,0-.42.39L-76-6c-.55-.24-1.11-.41-1.66-.68a1.77,1.77,0,0,1-.48.19,1,1,0,0,0,0-1.18,1,1,0,0,0-1.49.91c-.26.13-.48,0-.75.29-.74-.21-1.43-.74-2.26-.31-.39-.37-.83-.31-1.24-.56l-.48.3c-.74-.48-1.52,0-2.29-.1-.49,0-1-.51-1.5-.2A2.45,2.45,0,0,0-90-7.78c-1.23-.9-2.7,0-3.95-.78-.38.42-1.09,0-1.32.07s-.55.31-.81.31-.38-.18-.63-.17c-.5,0-.84.46-1.08-.09-.53.39-1,.23-1.5.55l-.29-.22a.86.86,0,0,0,.08-.17c.2-.63-.33-.92-1-1.14a1.16,1.16,0,0,0-.38,1.36,5.57,5.57,0,0,0-.82.9c.12.36.93.91.4,1.09a4.47,4.47,0,0,0-1.9-1.29l-.54-.8c-.59-.22-1.25.09-1.84-.18-.31.57-1.16.26-1.83.57s-.91.91-1.56,1c-.28-.44.65-.54.15-1a2.24,2.24,0,0,0-2-.11c-.48.23-.53.79-1,.8-.31-.55.14-.89-.13-1.44-.58.27-1-.28-1.51-1a26.67,26.67,0,0,0-2.89-.48c-.16,0-.28.11-.45.09s-.36-.23-.51-.25-.3.11-.45.09a7,7,0,0,0-1-.16,12.52,12.52,0,0,1-1.5-.2,7.7,7.7,0,0,1-1.08-.09c-.17-.05-.42-.35-.61-.38a2.41,2.41,0,0,0-.33,0c-.43,0-.65-.08-1.08-.09a3.63,3.63,0,0,1-1.42-.07l-.6.37c-.19-.21-.42-.18-.66,0a2.55,2.55,0,0,0-1.83-.18,4.9,4.9,0,0,1-.82-.45l-.48.3c-1.63-.35-3.24-.86-5-.31-.6-.34-1.28-.24-1.87-.74-.63.35-1.18.1-1.83.57l-.91-.58a1.22,1.22,0,0,1-1.63-.13,15.85,15.85,0,0,1-2,.65c-.18-.27.21-.37-.13-.69a2.13,2.13,0,0,1-1.47-.41c-.87.47-1.56-.34-2.43.18-1.12-.59-2.43.11-3.52-.66-.66.29-1.25.06-1.92.44A6.24,6.24,0,0,0-154-13c-.55,0-1.11-.07-1.68-.06.23-.2.25-.6-.28-.84-.21,0-.39.29-.57.56.14.07.18.16.14.26l.1.05h-.11c.15.32-.14.68-.12.83s.25.27.27.4-.13.41-.09.62.34.55.33.74c0,.72-.51,1.2-.8,1.83-.62.08-1.14-.63-1.74-.68-.25-.25-.34-.43-.74-.5-.87.63.12,1.63.66,1a1.65,1.65,0,0,1,0,.19h-.28v.27c0,.07.1.17.25.27a1.82,1.82,0,0,1-.09.29l0,0a.89.89,0,0,0-.21.15,8.66,8.66,0,0,1-.95-1.3c-.45-.55-1.17-.32-1.27-1.11-.44,0-.92.34-1.27-.35-.32.13-.1.41-.5.51a1.08,1.08,0,0,0,.13-.17.16.16,0,0,0,.15-.15.15.15,0,0,0,0-.09.61.61,0,0,0-.11-.43c-.31-.17-.57,0-.82.22a.86.86,0,0,0,0,.18c-.61-.24-1.21-.14-1.54-1.23-1.49.21-2.65-1.94-4.27-.76-.45-.16-.89-.46-1.39-.28a3.58,3.58,0,0,1-.35,1c-.08.14-.33-.1-.45.09s.3.51,0,.55c-.77,0-1.39-1-2.08-1.55-1.23.56-.15,2.33-1.55,2.48-.6-1.17.19-2,0-3a9.14,9.14,0,0,1-2.11-.59c-.43.13,0,.51-.42.64-.15-.36.27-.57-.18-1-.36.24-.63-.21-1,.25-.44,0-.83-.35-1.29-.14a1.9,1.9,0,0,0-.08,1.38c.1.3.48.33.67.72.11.23,0,.55,0,.76-.39-.1-.12-.48-.58-.59-.49.34-1,1.1-1.47,1.1-.17-.44.47-.66.05-1.17-.87-.67-.87-1.57-1.52-2.48-.52-.15-.45.42-1,.6-.34-.18-.66-.56-1.06-.3-.39.55-.35,1.37-1.23,1,.06.34.18.7,0,1-1.13-.77-2.62,1-3.78.45l.2-.32.31-.49-.51-.27a2.69,2.69,0,0,0-.7-.23,2.15,2.15,0,0,0-.59-1.29c-.74.58-1.34-.3-1.83.57-.2-.16-.41-.23-.6-.38-.39.27-.93.08-1.44.13-.23,0-.44.21-.69.24-.41.06-1,0-1.32.07s-.44,0-.66,0-.38.32-.59.37c-.43.1-1-.14-1.42-.07s-.76.23-1.14.33c-1.09.28-1.72.47-2.85.83l-1.71.54s0,0,0,0a.18.18,0,0,0-.19-.16.17.17,0,0,0-.18.16.15.15,0,0,0,.1.13l-1.25.42a7.19,7.19,0,0,0-2.73,1.51c-.64,0-1.79,0-2.19.79-.43-.26-1,.13-1.44.14-.44.38-.15,1-.62,1.34a.69.69,0,0,1-.33,0,.17.17,0,0,0-.17-.12l-.05,0a2.75,2.75,0,0,0-.9-.47,11.63,11.63,0,0,1-2.08.82h-.25l.07.06a5,5,0,0,0-1.38.8c-.29.27,0,.72-.18,1L-220-5c-.39-.15-.7-.81-1.11-.82-.76.49-.87,1.07-1.63,1.18a.79.79,0,0,0-.49-.21c-.19,0-.35.06-.35.13s.26.21.58.31h0v0c-.38,0-.86,0-1.21.05l-.83.07-.63-.52-.63-.52-1.33.26a20.29,20.29,0,0,1-2.2.3l-.87,0-.51.81-.51.81.21-.89.21-.89-.9-.91-.53.18-.53.19,0-.71h.53a2.11,2.11,0,0,1,1.12.49l.59.5,0-.27a1.77,1.77,0,0,0,0-.51c0-.13.12-.24.32-.25h.37l0-1.18-.73,0-.73,0,0-.24c0-.13,0-.53,0-.89V-9l2.94,0,.37-.63.37-.63-.38-.19-.38-.19,0,.72-.75-.39,0,1h-.79l.2-.29.2-.29-1.21-.14-1.21-.14-.51.18-.51.18L-232-9l-.63.22-.63.22-.8-.67-.51.18-.51.18,0,.84.47.16.47.16-.37.27a1.08,1.08,0,0,0-.39.68c0,.22-.05.54-.08.72l0,.31-.63-.2-.52-.17.35-.2-.22-.3a.64.64,0,0,0-.13-.12l.08,0a1,1,0,0,0,.58-.52l.14-.39-.58.21a1.26,1.26,0,0,0-.32.17.15.15,0,0,0,0-.1.18.18,0,0,0-.19-.16.17.17,0,0,0-.18.16.18.18,0,0,0,.19.16.19.19,0,0,0,.11,0,.49.49,0,0,0-.23.33v0h-.08a.32.32,0,0,0-.34.27.74.74,0,0,0,.25.47l.24.2.22-.12.46,1-.63.33-.22.12h-.48l-.26.63-.21-.11,0-1.21.37-.21.37-.21-.45-.6-.27.15a1.08,1.08,0,0,1-.81-.13l-.54-.28v-.58l0-.58h-1.11l0-1a3.06,3.06,0,0,0-.33-1.36l-.3-.4-1.26,0,.88-.32.88-.32-.67-.61-.67-.61.44-1.8-.28.36a3.91,3.91,0,0,1-1.11.76l-.83.4.39.6.39.6L-244-11v.3a.35.35,0,0,0,.38.29h.37l0,1.29,1.81,0,.26.35.26.35-.84-.22-.84-.22.26.35.26.35h-.36a.61.61,0,0,1-.52-.37l-.15-.38-.62.22-.62.22,0,2.06-.2-.16a5.07,5.07,0,0,1-.36-1.66l-.17-1.5h-1.4l-1.2,2.44,0-.6,0-.6-.52.18-.52.18-.2-.61-.2-.61.7-.21.7-.21,0-.92-1,0-1,0-.55.35-.55.35.94.31,0,.87-.82.6-.82.6.06.48c0,.27.08.61.11.76l0,.28,1.1-.82,0,.72,1.11,0,0,.71-.59-.19a8,8,0,0,0-1.88-.16l-1.29,0,.19-.28.19-.28-.94-.35a5.14,5.14,0,0,0-1.76-.3l-.82.05.61.13.61.13,0,.79,0,.79h-.36a3.05,3.05,0,0,1-1.23-.84,3.17,3.17,0,0,1-.87-1.18v-.34l-.43.39-.43.39-.5-.35c-.27-.19-.5-.26-.5-.16s-.66,0-1.48-.24l-1.48-.43-.65.78-.65.78-.68-.77-.68-.77.64.2.64.2-.26-.56-.26-.56.21-.31.15-.21-.54-.17-.55-.17L-265-9l-.23.34-1.35-.18L-268-9.06l.66.44.43.28v0l-.22.33h.47l0,.87H-267A3.35,3.35,0,0,1-268.34-8l-.94-.87.07.64a3.84,3.84,0,0,1-.19,1.37c-.14.4-.38.73-.54.73s-.39-.32-.52-.72l-.24-.72.36-.11c.2-.06.36-.22.35-.36v-.25h-1.91v-.28l-1.11,0v.27c0,.1.21.27.51.42l-.09.13-2.23-.63v-.58l-1.35,0,.22-1.53a11.87,11.87,0,0,1,.49-2.18l.27-.65-.53.62-.53.62-.47-1,.53-.39a1.23,1.23,0,0,0,.52-.79v-.4l-1,.17-1,.17.23.74.23.74-.37.89-.37.89.45.23.45.23-.79.44a2.91,2.91,0,0,0-.35.23l.06,2.72h-.87v.32a.34.34,0,0,0,.36.32.8.8,0,0,0,.51-.26l0,1.24-.39.14-.63.22.49.25c.27.14.5.38.51.54a1.48,1.48,0,0,0,.05.25L-278-3h-.12v.36h-.69l-.69-.3-.34.3h-.51V-3l-.74.18-.74.18,0-.37,0-.34,1.44,0-.36-.49-2,0-1-1.35-1.06,1,.46,1,2-.06.52,0-.46.54-.18.21h-1.31l.23-.34-.88.25-.25.09H-287l.11-.63-.51-.14-.51-.14.26.68.09.24h-1.3l-.54-.24.18.24h-1l.51-.46-.2-1.24-.2-1.24,1.13-.91,1.13-.91-.23-.19-.23-.19-.43.39a1.63,1.63,0,0,1-.89.4H-290l-.39-1.12.08,1,.08,1-.74.14a2.82,2.82,0,0,0-1.1.44l-.36.31.83.17.83.17-.2.29-.2.29-.73-.32-.73-.32v.67l1.09,0,.82,1.28-1.08,0-.2.46h-.45l-.1-.12-.4-.48-.65.35-.46.25h-.45l-.68-.29-.93-.39-.46.68h0l-.28-1-.28-1-.56.2-.56.2.21-.51.21-.51-1.94.17-1.94.17.12.52.12.52h-.83l.24.61.24.61-.05,0h-.92l-.47-.7-1.21.43-1.21-.62a6.73,6.73,0,0,0-1.49-.61h-.28l0,1.49h-1.68a2.76,2.76,0,0,0,.71-1l.22-.7-.42-.22-.42-.22-.42.41-.42.41.46-.23.46-.23v.68h-.36a2.6,2.6,0,0,0-1.09.71l-.44.43h-.42l-.12-.25-.25-.53-.33.19-.33.19.27.38,0,0h-.26l-.13-.09-.64-.43,0-1.53h.37a.35.35,0,0,1,.38.32V-4l1.81,0,.2-.3.2-.3-.23-.49-.23-.49h-.62c-.34,0-1.11,0-1.72-.08l-1.1-.07-.47-1.6-.28.4-.28.4.24.32.24.32h-.37a6.33,6.33,0,0,1-1.33-.29l-1-.3,0,1.27.46,0,.46,0-.46.17-.46.17,0,1.65-6-.34-1.56-.76-.16.41a.63.63,0,0,1-.49.41h-.33l.41-1-1.17,0,.45,1h-.89l-.21-.64-.21-.64H-328l.18,1,.19,1h-.63l-.24-1-.24-1H-330l.51.27.51.27-.41.23-.41.23.17.23.17.23-1.08.37-.72.25h-.37l0-.78,1.67-.07-.93-.3-.93-.31-.61.15-.61.15-.47-.24-.47-.24.75-.22a3.63,3.63,0,0,1,1.07-.18,4,4,0,0,0,.77,0l.45,0-.42-.9-1.18.28-2.19.49-1,.21,0,1,1.81,0,.27.37.27.37-1.22-.19a14.38,14.38,0,0,0-1.78-.18h-.56l.45-.49.45-.49-.7,0c-.38,0-1.07,0-1.53,0l-.83.07-.63-.52-.63-.52-1.33.26a20.29,20.29,0,0,1-2.2.3l-.87,0-.51.81-.51.81.21-.89.21-.89-.9-.91-.53.18-.53.19,0-.71h.53a2.11,2.11,0,0,1,1.12.49l.59.5,0-.27a1.77,1.77,0,0,0,0-.51c0-.13.12-.24.32-.25h.37l0-1.18-.73,0-.73,0,0-.24c0-.13,0-.53,0-.89V-9l2.94,0,.37-.63.37-.63-.38-.19-.38-.19,0,.72-.75-.39,0,1h-.79l.2-.29.2-.29-1.21-.14-1.21-.14-.51.18-.51.18,1.35.82-.63.22-.63.22-.8-.67-.51.18-.51.18,0,.84.47.16.47.16-.37.27a1.08,1.08,0,0,0-.39.68c0,.22-.05.54-.08.72l0,.31-.63-.2-.63-.2.49,1.05-.63.33-.63.33h1.08l-.41.37-.41.36-.41-.21-.41-.21,0-1.21.37-.21.37-.21-.45-.6-.27.15a1.08,1.08,0,0,1-.81-.13l-.54-.28v-.58l0-.58h-1.11l0-1a3.06,3.06,0,0,0-.33-1.36l-.3-.4-1.26,0,.88-.32.88-.32-.67-.61-.67-.61.44-1.8-.28.36a3.91,3.91,0,0,1-1.11.76l-.83.4.39.6.39.6-1.48.43v.3a.34.34,0,0,0,.38.29h.37l0,1.29,1.81,0,.26.35.26.35-.84-.22-.84-.22.26.35.26.35h-.36a.61.61,0,0,1-.52-.37l-.15-.38-.62.22-.62.22,0,2.06-.2-.16A5.07,5.07,0,0,1-359-8.24l-.17-1.5h-1.4l-1.2,2.44,0-.6,0-.6-.52.18-.52.18-.2-.61-.2-.61.7-.21.7-.21,0-.92-1,0-1,0-.55.35-.55.35.94.31,0,.87-.82.6-.82.6.06.48c0,.27.08.61.11.76l0,.28,1.1-.82,0,.72,1.11,0,0,.71-.59-.19a8,8,0,0,0-1.88-.16l-1.29,0,.19-.28.19-.28-.94-.35a5.14,5.14,0,0,0-1.76-.3l-.82.05.61.13.61.13,0,.79,0,.79h-.36a3.05,3.05,0,0,1-1.23-.84,3.17,3.17,0,0,1-.87-1.18v-.34l-.43.39-.43.39-.5-.35c-.27-.19-.5-.26-.5-.16s-.66,0-1.48-.24l-1.48-.43-.65.78-.65.78-.68-.77-.68-.77.64.2.64.2-.26-.56-.26-.56.21-.31.15-.21-.54-.17-.55-.17-.23.34-.23.34-1.35-.18-1.35-.18.66.44.66.43,0,1.06h-.39A3.35,3.35,0,0,1-382.44-8l-.94-.87.07.64a3.84,3.84,0,0,1-.19,1.37c-.14.4-.38.73-.54.73s-.39-.32-.52-.72l-.24-.72.36-.11c.2-.06.36-.22.35-.36v-.25h-2.22l-.19.28-.19.28-2.23-.63v-.58l-1.35,0,.22-1.53a11.87,11.87,0,0,1,.49-2.18l.27-.65-.53.62-.53.62-.47-1,.53-.39a1.23,1.23,0,0,0,.52-.79v-.4l-1,.17-1,.17.23.74.23.74-.37.89L-392-11l.45.23.45.23-.79.44A2.9,2.9,0,0,0-392.22-9.89ZM472.27-3l.54-.17-.25.54h-.81A.88.88,0,0,1,472.27-3ZM452.07-7.1l.09-.39.33-.1.64-.2-.68.77-.55.62C452-6.58,452-6.83,452.07-7.1Zm-22.73-3.72.09,0,.12,0a1.8,1.8,0,0,1-.38.3h-.12l-.2.27C428.67-10.43,429.05-10.62,429.34-10.82Zm-1.41,1c.16-.13.58-.37.66-.17-.36.22-.49.37-.73.52V-9.5h-.23C427.67-9.62,427.86-9.72,427.93-9.78Zm-2.51,2.25c.13-.05.18-.16.28-.08h-.13l.09.14-.81.69v-.13a.26.26,0,0,0,0-.13A1.7,1.7,0,0,1,425.42-7.53Zm-1,.84,0,0,.22.07-.19.16C424.41-6.56,424.4-6.63,424.43-6.69Zm-.13.37-.17.14-.2-.12C424-6.4,424.17-6.46,424.3-6.32Zm-12.06-3-.06,0-.19.12-.07,0c-.07-.14-.07-.27-.14-.4C411.94-9.67,412.09-9.52,412.24-9.34Zm-7.29-.77a.74.74,0,0,1,.27.39l-.23.11-.13,0A.39.39,0,0,1,404.95-10.11Zm-35.57.85-.48.05h0C369-9.34,369.26-9.41,369.38-9.26ZM340.63-7.55l.27.4-.24.15-.27-.4ZM339-9.4c-.25-.39-.66-.83-.61-1.14C338.65-10.84,339.38-9.7,339-9.4Zm-1.85-3.22.55.81c-.63.44.4,1.34-.56,1.68-.48-.13-.32-.55-.64-.93C337.15-11.47,336.82-12.14,337.17-12.62Zm-.39-.32c-.3.13-.52-.19-.49-.47C336.6-13.53,336.81-13.22,336.78-12.94Zm-15.84,2.07a1.12,1.12,0,0,1,.33.74C320.94-9.91,320.59-10.67,320.94-10.87ZM307.83-12a.75.75,0,0,0-.18.32.46.46,0,0,1-.22-.46A.31.31,0,0,1,307.83-12Zm-2.2-.67a.71.71,0,0,0,.77.1.64.64,0,0,1-.08.56c-.16.21,0,.53.12.68-.3.35-.51,0-.78.1C305.46-11.77,305.8-12.16,305.63-12.68Zm.17,2-.47-.06A.57.57,0,0,1,305.8-10.7ZM304.6-13l.45.67a4,4,0,0,1-.51.74,1.54,1.54,0,0,0-.38,0,.75.75,0,0,0,.05-.25C304.26-12.27,303.88-12.81,304.6-13Zm-2.42,1.89-.68-.08a1.25,1.25,0,0,1-.08-.21C301.76-11.6,302-11.41,302.18-11.15Zm-9-4.31c.27.47.95,1.05.37,1.29C293.12-14.35,292.88-15.16,293.21-15.45Zm-25.33,2.18-.1.56a1.29,1.29,0,0,0-.65.59c-.31-.19-.67,0-1,.06a.71.71,0,0,1-.22-.2,1.07,1.07,0,0,0-.1-.7A1.49,1.49,0,0,1,267.88-13.27Zm-3,1.29a1.22,1.22,0,0,1,.44.85.8.8,0,0,1-.29.48c-.52.07-.94-.56-1.45-.62l-.36.19c0-.13,0-.3,0-.53C263.84-11.69,264.23-12.05,264.91-12ZM251-8.36c-.25,0-.39.18-.52.36a1.18,1.18,0,0,1-.91-.44l.21-.18.23-.19h-.62a2.17,2.17,0,0,1-.08-.32c.5-.2.59-1,1.49-.64C250.88-9.29,251.27-9,251-8.36Zm.15,1.8a1.7,1.7,0,0,1,.35-.8h.16a.77.77,0,0,0,.44.19.36.36,0,0,0,.26-.1l.15.09C252.09-7,251.67-6.73,251.19-6.56Zm3.58,2.88c-.22.08-.41-.07-.58-.38l.36-.23c.22.23.17.38.23.56Zm-.94-3.72c.1-.52-.26-.72,0-1.36.43-.12.67-.51,1.4-.2C256.1-8.25,255.16-6.67,253.82-7.4Zm2.91,2.31a7,7,0,0,1-1-.11,6.8,6.8,0,0,1,.17-1.14,1.27,1.27,0,0,1,1,.11A1.56,1.56,0,0,1,256.74-5.09Zm4.19-6.26A1.65,1.65,0,0,1,259-11c0-.53-.2-.89.06-1.58A1.17,1.17,0,0,1,260.92-11.35Zm-1.84-2.38a1.45,1.45,0,0,1-.66.25.78.78,0,0,0-.22,0h-.37v0a3.55,3.55,0,0,1-.59-.14C256.58-15.36,259.67-15.91,259.08-13.73Zm-2.59,2.94c2.2-.9,2.43,2.62-.06,1.58C256.18-9.55,256.39-10.21,256.49-10.79Zm-.44-2.59a1.3,1.3,0,0,1-.32,1.76C254-11.68,254.45-13.91,256.05-13.38ZM253.11-16c1.21-.58,1.86,1,1,1.79-.7,0-.76-.37-1.28-.46Zm.5,6a1.84,1.84,0,0,1-1.54-.28C251.86-12.25,254.57-11.89,253.6-9.95Zm-2.28-2.47-1.11-.2c-.29-.71-.23-.75.07-1.58C251.71-14.78,252.49-13.15,251.32-12.42Zm-2.63-4.35c.58.11,1.27.15,1.5.51,0,.7-.37.76-.46,1.28C248.45-15,248.19-16.05,248.7-16.77Zm-.81,4.41a.92.92,0,1,1,.6,1.71C247.69-10.8,247.64-11.48,247.89-12.36ZM247-7.73a1.4,1.4,0,0,1,1.55.28,1.08,1.08,0,0,1-.13.62h-.29a.79.79,0,0,0-.58.36l-.12.2A.88.88,0,0,1,247-7.73ZM227.39-2.89h.11a.92.92,0,0,0-.05.26h-.22ZM224-2.65h0l.2,0H224ZM218.93-3v0a.91.91,0,0,0,.25.36h-.78Zm-82.7-.92c.47.53.31.88.37,1.29C135.91-2.56,135.71-3.72,136.24-3.94Zm-14.37.21-.6.37C120.8-3.66,121.76-4.26,121.87-3.73ZM91.45-4c-.25-.39-.66-.83-.61-1.14C91.08-5.43,91.81-4.29,91.45-4ZM89.6-7.21l.55.8c-.63.44.4,1.34-.56,1.68-.48-.13-.32-.55-.64-.93C89.58-6.06,89.25-6.73,89.6-7.21Zm-.39-.32c-.3.13-.52-.19-.49-.47C89-8.12,89.24-7.81,89.21-7.52ZM73.37-5.46a1.13,1.13,0,0,1,.33.74C73.37-4.5,73-5.26,73.37-5.46ZM59.86-6.73c.31-.14.52.18.49.46C60-6.14,59.83-6.46,59.86-6.73Zm-1.3-1a1.45,1.45,0,0,0,0,.16.53.53,0,0,1,.12.36.58.58,0,0,0,.2.13.57.57,0,0,1-.1.44c-.16.21,0,.53.12.68-.3.35-.51,0-.78.1-.24-.64.3-1.07-.19-1.78C58.15-7.9,58.34-7.71,58.55-7.7ZM56.64-6.44c0-.42-.33-1,.39-1.19l.45.67c-.19.48-.8.85-.74,1.41.43.79,1.12-.2,1.59.33-.29.66-1.27.43-1.8.36-.12-.14-.14-.25-.06-.34C56.17-5.71,56.64-6,56.64-6.44ZM55-5.06a5.37,5.37,0,0,1,.43.78.93.93,0,0,1-.32.12C54.7-4.83,54-5.42,53.85-6,54.48-6.32,54.77-5.4,55-5.06Zm-9.38-5c.27.47.95,1.05.37,1.29C45.55-8.93,45.31-9.75,45.64-10ZM16.39-8.67a4.84,4.84,0,0,0-.72-.11c0-.08.06-.19.08-.19.21,0,.5,0,.61.08A.27.27,0,0,1,16.39-8.67Zm.18-2.64v.11l-.11,0Zm-.12-1.75,0,.09-.08,0Zm-.7,1.32.14,0,0,.11s-.09,0-.1,0A.27.27,0,0,1,15.74-11.75Zm-.09,1.31c.14-.33.49-.1.72,0a2.45,2.45,0,0,1,.52.44L18-9l0,0c-.14.05-.35.19-.42.14-.37-.27-.71-.58-1.05-.88-.13-.11-.24-.33-.38-.34S15.47-10,15.65-10.44Zm-.27-3.37.2.11-.09.22c-.06,0-.16-.06-.17-.11S15.35-13.74,15.38-13.82Zm.12,4.32c-.15.11-.25.24-.34.23s-.2-.14-.29-.21c.08-.09.16-.25.25-.25S15.32-9.6,15.49-9.5Zm-.4-1.73L15-11a1.3,1.3,0,0,1-.16-.14s0-.1,0-.1A1.19,1.19,0,0,1,15.09-11.23ZM14.88-13s0,.14-.06.21a.15.15,0,0,1-.12,0c-.08-.13-.15-.27-.22-.4A4.38,4.38,0,0,1,14.88-13Zm-.68,2.88c-.07-.09-.15-.19-.21-.29s.07-.1.08-.09l.32.17ZM14-13.7a5.11,5.11,0,0,1,.39.45c-.19-.05-.39-.1-.57-.18s0-.14-.06-.22S13.94-13.73,14-13.7Zm.17,1.58s0,.21,0,.33-.22,0-.25,0a2.48,2.48,0,0,1-.21-.41A1.75,1.75,0,0,1,14.14-12.12Zm-1,1.2,0-.18.07.13ZM13-12.76s.06-.09.09-.09c.42,0,.46.3.56.57C13.35-12.37,13-12.36,13-12.76ZM9.92-10.59l-.08,0v-.08Zm-7,7a1.12,1.12,0,0,1,.33.74C2.87-2.58,2.52-3.35,2.87-3.54ZM-10.64-4.82c.31-.14.52.18.49.46C-10.46-4.22-10.67-4.54-10.64-4.82Zm-1.18-1c.1.42.31.78.07,1.1s0,.53.12.68c-.3.35-.51,0-.78.1-.24-.64.3-1.07-.19-1.78C-12.3-6-12.09-5.71-11.82-5.79Zm-2,1.27c0-.42-.33-1,.39-1.19L-13-5c-.19.48-.8.85-.74,1.41.43.79,1.12-.2,1.59.33-.29.66-1.27.43-1.8.36-.12-.14-.14-.25-.06-.34C-14.33-3.79-13.86-4.1-13.86-4.53Zm-1.61,1.39a3.63,3.63,0,0,1,.29.51h-.47a4.56,4.56,0,0,1-1-1.49C-16-4.41-15.73-3.48-15.47-3.14Zm-9.38-5c.27.47.95,1.05.37,1.29C-24.95-7-25.19-7.83-24.86-8.13ZM-83.93-2.84c-.22.21-.38.1-.57.16-.07-.24-.05-.45-.12-.68C-84.36-3.5-84.15-3.18-83.93-2.84Zm-11.9-2.65h0l.47.05v-.1a2.56,2.56,0,0,1,.15,1C-95.7-4.5-95.94-5.08-95.84-5.49Zm-3.44,2.71a.53.53,0,0,1,.17.16h-.31A.89.89,0,0,1-99.28-2.79Zm-10.66-2.86-.6.37C-111-5.57-110-6.17-109.93-5.65ZM-138.71-3.5l-.06-.09.11.06Zm0-.55.07.11-.21.19-.1-.15Zm-1.61-1.85C-140.6-6.3-141-6.73-141-7-140.73-7.34-140-6.2-140.35-5.9Zm-1.85-3.22.55.8c-.63.44.4,1.34-.56,1.68-.48-.13-.32-.55-.64-.93C-142.22-8-142.55-8.64-142.2-9.12Zm-.39-.32c-.3.13-.52-.19-.49-.47C-142.77-10-142.56-9.72-142.59-9.44Zm-15.88,2.11,0,0a1.13,1.13,0,0,1,.33.74c-.2.13-.4-.09-.46-.32l.2-.27A.35.35,0,0,1-158.48-7.33ZM-174-4.77a2.61,2.61,0,0,0,.08-.46C-173.73-5-173.81-4.83-174-4.77Zm2-3.88c.31-.14.52.18.49.46C-171.76-8.05-172-8.38-171.94-8.65Zm-1.18-1c.1.42.31.78.07,1.1s0,.53.12.68c-.3.35-.51,0-.78.1-.24-.64.3-1.07-.19-1.78C-173.6-9.87-173.39-9.54-173.12-9.62Zm-.7,2.33a.45.45,0,0,1,.36.16c-.19.43-.66.48-1.12.45Zm-1.34-1.06a.84.84,0,0,0,0-.16l.76-.28h-.79a.56.56,0,0,1,.42-.74l.45.67c-.19.48-.8.85-.74,1.41a.6.6,0,0,0,.24.25,1.62,1.62,0,0,1-.54.21.17.17,0,0,1,0-.1C-175.63-7.63-175.17-7.93-175.16-8.36Zm.05,3.58a1.35,1.35,0,0,1,.16.33s0,.08,0,.11l-.26.57h.39a.62.62,0,0,0,.22-.06c.14.24.29.47.43.69h0a.17.17,0,0,0-.18.16.18.18,0,0,0,.19.16.18.18,0,0,0,.15-.09l0,.06-.15,0-.67.12-.11,0a7.16,7.16,0,0,0-.45-.64l-.23-.6h-.06l-.06-.34-.2-1.24A10.3,10.3,0,0,1-175.11-4.78ZM-176.77-7a5.65,5.65,0,0,1,.44.81l-.35.06c-.27-.41-.65-.8-.92-1.18a.81.81,0,0,0,.26-.23l.13-.19C-177-7.46-176.9-7.14-176.77-7Zm-.57-.86h-.18a.18.18,0,0,0-.16-.09.17.17,0,0,0-.15.1h-.08a1.2,1.2,0,0,1,0-.13A.51.51,0,0,1-177.34-7.83ZM-186.16-12c.27.47.95,1.05.37,1.29C-186.25-10.85-186.49-11.66-186.16-12ZM-222.64-3.5l.05.17h-.21ZM-236-4.4l-.13.12,0-.12Z"/></g><g id="Layer_2" data-name="Layer 2"><g id="Layer_1-2" data-name="Layer 1-2"><path class="cls-3" d="M100,48.25A51.71,51.71,0,1,0,151.71,100s0-.06,0-.09A51.77,51.77,0,0,0,100,48.25Z"/><path d="M71.09,73H76V88.84c0,1,.31,1.87,1.7,1.87s1.68-1.14,1.68-2V73h4.93V88.21c0,3.55-1.59,6.29-6.63,6.29-4.18,0-6.61-2-6.61-6.29V73"/><path d="M90.47,87v1.49c0,1.2.39,2.27,2,2.27,1.14,0,1.65-1,1.65-2.1,0-1.76-1.45-2.43-2.74-3.21a14.13,14.13,0,0,1-3.72-2.74,6.13,6.13,0,0,1-1.43-4.2c0-3.94,2.37-6,6.18-6,4.28,0,6.46,2.85,6.23,6.81H94.05c0-1.23,0-2.91-1.62-3a1.45,1.45,0,0,0-1.7,1.4c-.14,1.26.5,1.91,1.49,2.58a34.64,34.64,0,0,1,4.54,3c1.14,1.07,1.82,2.46,1.82,5,0,4-2.27,6.27-6.32,6.27-4.54,0-6.4-2.52-6.4-5.29V87h4.54"/><path d="M107.43,94a7.85,7.85,0,0,0,4.36-1,5,5,0,0,0,2.1-4.54V79.17c0-2-.31-4.05-2.21-5.18a11.35,11.35,0,0,0-5.54-1h-5.39V94h6.69m-1.7-17.2c2.41,0,3.21.19,3.25,2.66v6.81c.08,2.79,0,4.14-3.25,3.92Z"/><path d="M120.21,94l.59-4.09h3.86l.7,4.09h5L125.8,73h-5.95l-4.54,21h5m4-7.78h-2.9l1.43-9.4h0Z"/><path d="M51.48,99.91a48.46,48.46,0,0,0,2.66,15.83l94.47-15.83Z"/><path d="M55,118a48.55,48.55,0,0,0,8.78,14.15l84.83-32.28Z"/><path d="M65.54,134.07a48.63,48.63,0,0,0,15.4,10.49l67.67-44.65Z"/><path d="M83.82,145.68a48.27,48.27,0,0,0,22.47,2.37l42.32-48.14Z"/><path d="M148.48,103.12l.11-3.2-38.34,47.47A48.57,48.57,0,0,0,148.48,103.12Z"/><path class="cls-4" d="M73.17,110.55c0-3-1.74-4.7-5-4.7s-5.05,1.68-5.05,4.7V117c0,3.54,1.31,5.39,5,5.39s5-1.85,5-5.39v-6.4m-3.69,6.71c0,.9-.08,2.27-1.28,2.27s-1.34-1.34-1.34-2.27V110.8c0-1,.15-2.12,1.32-2.12s1.31,1.14,1.31,2.12Z"/><path class="cls-4" d="M78.56,115.77h1.21c.86.07,1.14.69,1.26,1.66s0,2.27.08,3.66a3.26,3.26,0,0,0,.2.91h4v-.22a1.36,1.36,0,0,1-.35-.55c-.22-1-.23-3.71-.34-5a2.17,2.17,0,0,0-1.83-2h0c1.56-.72,2-1.91,2-3.59,0-3.12-1.51-4.35-4.54-4.35H74.87V122h3.69v-6.21m0-6.7c1.81,0,2.58,0,2.58,1.91,0,1-.25,2-1.32,2H78.56Z"/><path class="cls-4" d="M93.88,122l-.17-1.41h0a3.1,3.1,0,0,1-3.19,1.76c-3.12,0-4.13-2.16-4.13-5v-6.45c0-3.41,1.58-5,5-5,3.15,0,5,1.34,5,4.54v1.14H92.66v-.83c0-1.34-.17-2-1.14-2s-1.43.61-1.43,1.64v7.79a1.23,1.23,0,0,0,1.36,1.41c1.2,0,1.2-1,1.2-2v-1.25H91.38v-2.84h5V122H93.88"/><path class="cls-4" d="M101.23,122l.44-3.07h2.9l.52,3.07h3.74l-3.41-15.74H101L97.55,122h3.71m3-5.84h-2.17l1.07-7.05h0Z"/><polyline class="cls-4" points="113.1 113.15 113.06 113.2 113.4 121.98 109.89 121.98 109.89 106.24 113.68 106.24 116.54 115.03 116.6 115.03 116.25 106.24 119.76 106.24 119.76 121.98 115.98 121.98 113.1 113.15"/><rect class="cls-4" x="121.72" y="106.24" width="3.69" height="15.74"/><path class="cls-4" d="M133.6,111.73v-1c0-1.34-.49-2-1.14-2-1.14,0-1.43.61-1.43,1.64v7.79c0,.89.35,1.41,1.32,1.41,1.26,0,1.36-1.31,1.36-2.27v-1.41h3.69v1.93c0,2.7-1.56,4.54-5.33,4.54-3.41,0-4.72-1.81-4.72-5v-6.4c0-3.41,1.58-5,5-5,3.15,0,5,1.34,5,4.54v1.32H133.6"/></g></g></g><g id="Layer_2-2" data-name="Layer 2"><path d="M1.36,1.56V198.44H198.64V1.56ZM100,156.63A56.63,56.63,0,1,1,156.63,100,56.69,56.69,0,0,1,100,156.63Z"/><g class="cls-5"><polygon class="cls-6" points="197.37 107.37 197.37 92.63 100.01 100 100.01 100 194.02 73.63 188.98 59.77 100.01 100 100.01 100 179.33 43.06 169.85 31.76 100 100 100 99.99 155.07 19.36 142.3 11.98 100 99.99 100 99.99 124.17 5.39 109.65 2.83 100 99.99 100 99.99 100 99.99 90.35 2.83 75.83 5.39 100 99.99 100 99.99 57.7 11.98 44.93 19.36 100 99.99 100 100 30.15 31.76 20.67 43.06 99.99 100 99.99 100 11.02 59.77 5.98 73.63 99.99 100 99.99 100 2.63 92.63 2.63 107.37 99.99 100 99.99 100 5.98 126.38 11.02 140.23 99.99 100 99.99 100 20.67 156.94 30.15 168.24 100 100 100 100.01 44.93 180.64 57.7 188.01 100 100.01 100 100.01 75.83 194.61 90.35 197.17 100 100.01 100 100.01 100 100.01 109.65 197.17 124.17 194.61 100 100.01 100 100.01 142.3 188.01 155.07 180.64 100 100.01 100 100 169.85 168.24 179.33 156.94 100.01 100 100.01 100 188.98 140.23 194.02 126.38 100.01 100 100.01 100 197.37 107.37"/></g></g></svg>