<svg xmlns="http://www.w3.org/2000/svg" width="88" height="144.04" viewBox="0 0 88 144.04"><defs><style>.cls-1{fill:#fff;}.cls-2{fill:#ff4338;}</style></defs><title>cup-icon</title><g id="Layer_2" data-name="Layer 2"><g id="Layer_1-2" data-name="Layer 1"><path class="cls-1" d="M85.54,104A10,10,0,0,0,79.45,101c-2.66-5.41-10.2-9.34-21.85-11.32l9.39-4a4.53,4.53,0,0,0,2.42-5.88l-3.36-8.23c-.05-.13-.14-.24-.2-.37a4.5,4.5,0,0,0-.39-2.51l-3.69-7.8a4.48,4.48,0,0,0-.26-.43,4.49,4.49,0,0,0-.38-2l-3.69-8.26a4.51,4.51,0,0,0-.6-1,4.51,4.51,0,0,0-.38-1.45L52.6,39.28a4.34,4.34,0,0,0-3.85-2.63c6.49-4.47,19-3.18,23.73-2.19a4.53,4.53,0,0,0,4.75-6.88C66.92,11.55,59.95,2.35,59.66,2A4.53,4.53,0,0,0,56.37.18c-7.14-.5-12.72,0-17.07,1.65a21.9,21.9,0,0,0-2,.88,23.47,23.47,0,0,0-7.21,5.79,12.49,12.49,0,0,1-2.95,2.66,20.79,20.79,0,0,1-4.9,1.65c-.66.16-1.33.31-2,.45-2,.4-4.15.75-6.5,1a4.47,4.47,0,0,0-.81.21l-.09-.14a4.53,4.53,0,0,0-3.61-2.16L4.78,12A4.53,4.53,0,0,0,.65,18.82L23.47,56.58l-6.8,6.49A4.53,4.53,0,0,0,16,68.85L29.36,88.91l-.08.67a55.82,55.82,0,0,0-8.36,2c-10.76,3.61-13.09,9.12-13.15,13.1a9.22,9.22,0,0,0,.06,1.17,4.45,4.45,0,0,0,0,.71C9.54,117.83,16.34,144,43.5,144l1.14,0c11.89,0,21.81-5.52,28.25-15.68,8.1-1.46,14.22-9,15-15.7C88.31,109,87.52,106.11,85.54,104ZM33.65,47.38l-.05.11c-.13,0-.28.07-.41.13l0-.05Z"/><path class="cls-2" d="M82.22,107.06c-1.43-1.54-3.7-1.71-6.23-1.64-.25-5.88-9.58-9.84-20.74-11.5l1,3.37c10,1.74,16.63,5.25,16.59,8.4,0,1-.76,2.09-2.08,3.08h0c-.61.46-8.39,6-28.23,4.92,0,0,22.45-3,24.4-7.86a36,36,0,0,0-9-3.11q-1.4-.31-2.87-.56l-3.7-11.27-.1-.28-.12-.35s-1.56.64-2.41,1l-1.93-2.95-2.49-3.9-1.21-1.9-.25-.39-.42-.66L34.58,69.12l4.2,2.9.21.15,2.16-1.49,2.95-2L45,68l0-.07-5.57-9.28-4.2-7-.14.14-.75.72-2.12,2L9,16.73l-4.43-.25L29.22,57.35l-2.12,2-7.3,7L30.7,82.75l1.42,2.13L34,87.78l-.09.8-.26,2.31-1.41,11c-1,.14-1.92.31-2.85.49-5.41,1.08-9.91,2.87-12.28,5.32a4,4,0,0,1-1.69-2.87c0-2.06,3-4.27,7.9-5.92A47.12,47.12,0,0,1,30,97.26L30.43,94a51.89,51.89,0,0,0-8.07,1.92c-6.53,2.19-10,5.26-10.06,8.87a5.59,5.59,0,0,0,.12,1.18l-.07,0c4.59,31.1,23.55,33.56,31.27,33.57,5.93.17,18.5-.92,26.53-15.42.32,0,.64,0,1,0,6.81-.62,11.74-7.35,12.28-11.9C83.56,110.68,83.63,108.57,82.22,107.06Zm-2.62,4.62c-.33,2.81-3.38,7.13-7.46,8.28a58.68,58.68,0,0,0,3.28-10.72c1.63-.06,3.56-.07,4,.41C79.61,109.85,79.75,110.48,79.61,111.68Z"/><polygon class="cls-2" points="46.82 83.2 49.67 88.16 65.22 81.56 61.86 73.33 46.82 83.2"/><path class="cls-2" d="M43.7,35c8.72-9.48,29.72-5,29.72-5C63.09,14,56,4.7,56,4.7c-7.19-.51-11.87.15-15.16,1.37a16.93,16.93,0,0,0-1.61.69c-5,2.46-6.29,6.34-10,8.36a25.86,25.86,0,0,1-6,2.08q-1.07.26-2.17.48c-2.3.47-4.68.83-6.82,1.1l15.29,25C33.51,43.07,38.42,40.77,43.7,35ZM38.76,21l2.05-8.4c1.14,2.39,2.29,4.78,3.43,7.2a22.88,22.88,0,0,1,8.85-.42,38.79,38.79,0,0,0-6.73,5c-1.39,1.22-2.78,2.53-4.17,3.86-2.24,2.13-4.47,4.29-6.7,6.19h0q1-4.09,2-8.24a33.28,33.28,0,0,1-7.58-4.74A22.88,22.88,0,0,0,38.76,21Z"/><polygon class="cls-2" points="42.07 57.13 52.35 49.7 52.13 49.22 48.47 41.15 37.55 49.66 41.88 56.81 42.07 57.13"/><polygon class="cls-2" points="43.43 59.41 47.45 66.3 47.72 66.77 57.01 60.35 56.89 60.08 53.32 52.09 43.43 59.41"/><polygon class="cls-2" points="45.53 70.96 44.17 71.87 41.2 73.85 45.36 80.74 45.45 80.89 61.37 70.67 61.23 70.36 57.69 62.87 45.53 70.96"/></g></g></svg>