<svg xmlns="http://www.w3.org/2000/svg" width="44" height="44" viewBox="0 0 44 44"><defs><style>.cls-1{fill:none;}.cls-2{fill:#fff;}</style></defs><title>instagram-icon-white</title><g id="Layer_2" data-name="Layer 2"><g id="Layer_1-2" data-name="Layer 1"><rect class="cls-1" width="44" height="44"/><path class="cls-2" d="M26.75,22A5.44,5.44,0,1,1,16,21H12.31v7.23A2.81,2.81,0,0,0,15.12,31H27.49a2.81,2.81,0,0,0,2.81-2.81V21H26.65A5.47,5.47,0,0,1,26.75,22Zm.75-9H15.12a2.81,2.81,0,0,0-2.81,2.81v3h4.56a5.44,5.44,0,0,1,8.89,0h4.56v-3A2.81,2.81,0,0,0,27.49,13Zm1.38,3.47a.5.5,0,0,1-.5.5H26.86a.5.5,0,0,1-.5-.5V15a.5.5,0,0,1,.5-.5h1.51a.5.5,0,0,1,.5.5ZM24.66,22a3.35,3.35,0,1,0-3.35,3.35A3.35,3.35,0,0,0,24.66,22Z"/></g></g></svg>