<svg xmlns="http://www.w3.org/2000/svg" width="44" height="44" viewBox="0 0 44 44"><defs><style>.cls-1{fill:none;}.cls-2{fill:#fff;}</style></defs><title>linked-in-icon-white</title><g id="Layer_2" data-name="Layer 2"><g id="Layer_1-2" data-name="Layer 1"><rect class="cls-1" width="44" height="44"/><path class="cls-2" d="M17.08,15A1.92,1.92,0,0,1,15,17a1.93,1.93,0,1,1,.05-3.85A1.9,1.9,0,0,1,17.08,15Zm-4,15.82V18.49H17V30.87Zm6.15-8.43c0-1.54-.05-2.84-.1-3.95h3.34l.18,1.72h.08a4.44,4.44,0,0,1,3.82-2c2.53,0,4.43,1.7,4.43,5.34v7.32H27.15V24c0-1.59-.56-2.68-2-2.68a2.11,2.11,0,0,0-2,1.44,2.75,2.75,0,0,0-.13,1v7.14H19.25Z"/></g></g></svg>