<svg xmlns="http://www.w3.org/2000/svg" viewBox="0 0 212.73 68"><defs><style>.cls-1{fill:#fff;}.cls-2{fill:#ff4338;}</style></defs><title>site-logo</title><g id="Layer_2" data-name="Layer 2"><g id="Layer_1-2" data-name="Layer 1"><path class="cls-1" d="M0,0H21l5.12,5.12V17.81L21.9,22l4.85,15.58H17.27L13,23.21H9.32V37.59H0ZM15.42,16.4l1.36-1.31v-7L15.42,6.75H9.32V16.4Z"/><path class="cls-1" d="M40.59,0H61.94V7.68h-12v6.86H60.75v7.68H49.9v7.68H62.05v7.68H40.59Z"/><path class="cls-1" d="M75,0H84.5l4.19,30.23L92.89,0h8.83L95.18,37.59H81.45Z"/><path class="cls-1" d="M159.28,0h9.32V29.74h10.13v7.85H159.28Z"/><path class="cls-1" d="M195.62,8.06h-7.84V0h24.95V8.06h-7.85V37.59h-9.26Z"/><polygon class="cls-2" points="129.59 34.03 138.17 27.81 152.04 17.73 134.89 17.73 129.59 1.42 124.29 17.73 107.15 17.73 121.02 27.81 115.74 44.05 115.81 44.05 129.59 34.03"/><path class="cls-1" d="M40.34,65.68V55.19l2.32-2.32H50.8l2.35,2.32v3.18H49V56.6l-.68-.68h-3l-.75.75v7.63l.75.72h3l.68-.66V62.45h4.17v3.22L50.8,68H42.67Z"/><path class="cls-1" d="M65.83,65.68V55.19l2.32-2.32h8.29l2.35,2.32V65.68L76.44,68H68.15Zm8-.72.75-.75V56.66l-.75-.75H70.74l-.75.75v7.54l.75.75Z"/><path class="cls-1" d="M92,52.87h10.37V56H96.1v3.18h5.59V62.3H96.1V68H92Z"/><path class="cls-1" d="M115,52.87h10.37V56h-6.23v3.18h5.59V62.3h-5.59V68H115Z"/><path class="cls-1" d="M138,52.87h10.64V56h-6.49v2.72H148v3.14h-5.86v3h6.54V68H138Z"/><path class="cls-1" d="M161.7,52.87h10.64V56h-6.49v2.72h5.86v3.14h-5.86v3h6.54V68H161.7Z"/></g></g></svg>