<svg xmlns="http://www.w3.org/2000/svg" width="44" height="44" viewBox="0 0 44 44"><defs><style>.cls-1{fill:none;}.cls-2{fill:#fff;}</style></defs><title>twitter-icon-white</title><g id="Layer_2" data-name="Layer 2"><g id="Layer_1-2" data-name="Layer 1"><rect class="cls-1" width="44" height="44"/><path class="cls-2" d="M31.14,16.42A7.38,7.38,0,0,1,29,17a3.7,3.7,0,0,0,1.62-2,7.4,7.4,0,0,1-2.35.9A3.7,3.7,0,0,0,22,19.22a10.48,10.48,0,0,1-7.61-3.86,3.7,3.7,0,0,0,1.14,4.93,3.67,3.67,0,0,1-1.67-.46v0a3.7,3.7,0,0,0,3,3.62,3.7,3.7,0,0,1-1.67.06,3.7,3.7,0,0,0,3.45,2.56,7.45,7.45,0,0,1-5.47,1.53A10.5,10.5,0,0,0,29.3,18.81q0-.24,0-.48A7.5,7.5,0,0,0,31.14,16.42Z"/></g></g></svg>