<svg xmlns="http://www.w3.org/2000/svg" viewBox="0 0 99 99"><defs><style>.cls-1{fill:#513628;}.cls-2{fill:#fff;}.cls-3{fill:#008357;}.cls-4{fill:#2a9f7f;}</style></defs><title>usda-organic-logo</title><g id="Layer_2" data-name="Layer 2"><g id="Layer_1-2" data-name="Layer 1"><path class="cls-1" d="M49.5,99A49.5,49.5,0,1,1,99,49.5,49.55,49.55,0,0,1,49.5,99Z"/><path class="cls-2" d="M49.5,4A45.54,45.54,0,1,0,95,49.5,45.59,45.59,0,0,0,49.5,4Z"/><path class="cls-3" d="M24,25.81h4.34V39.75c0,.89.27,1.65,1.5,1.65s1.48-1,1.48-1.77V25.81h4.34V39.19c0,3.13-1.41,5.54-5.84,5.54C26.14,44.73,24,43,24,39.19V25.81"/><path class="cls-3" d="M41.07,38.1v1.31c0,1.06.34,2,1.72,2,1,0,1.46-.91,1.46-1.84,0-1.56-1.28-2.15-2.42-2.84a12.39,12.39,0,0,1-3.27-2.41,5.4,5.4,0,0,1-1.26-3.7c0-3.47,2.09-5.25,5.44-5.25,3.78,0,5.7,2.52,5.5,6h-4c0-1.08,0-2.56-1.43-2.66a1.28,1.28,0,0,0-1.5,1.23c-.13,1.11.44,1.68,1.3,2.27a29.38,29.38,0,0,1,4,2.61c1,.94,1.6,2.17,1.6,4.41,0,3.55-2,5.52-5.56,5.52-4,0-5.65-2.22-5.65-4.66v-2h4"/><path class="cls-3" d="M56,44.29a6.94,6.94,0,0,0,3.85-.87,4.38,4.38,0,0,0,1.84-4v-8.2c0-1.78-.27-3.57-1.94-4.56a10.07,10.07,0,0,0-4.88-.86H50.11V44.29H56m-1.5-15.16c2.12.05,2.83.18,2.86,2.34v6c.07,2.46,0,3.65-2.86,3.45Z"/><path class="cls-3" d="M67.26,44.29l.52-3.6h3.4l.61,3.6h4.39l-4-18.48H66.94l-4,18.48h4.36m3.5-6.85H68.25l1.25-8.28h0Z"/><path class="cls-4" d="M92.27,49.5a42.77,42.77,0,0,1-85.54,0H92.27"/><path class="cls-3" d="M6.73,49.5A42.61,42.61,0,0,0,9.07,63.44L92.27,49.5Z"/><path class="cls-3" d="M9.83,65.47a42.58,42.58,0,0,0,7.73,12.46L92.27,49.5Z"/><path class="cls-3" d="M19.11,79.58a42.68,42.68,0,0,0,13.56,9.24L92.27,49.5Z"/><path class="cls-3" d="M35.21,89.81A42.56,42.56,0,0,0,49.5,92.27,43.45,43.45,0,0,0,55,91.9L92.27,49.5Z"/><path class="cls-3" d="M92.16,52.32l.11-2.82L58.49,91.31A42.76,42.76,0,0,0,92.16,52.32Z"/><path class="cls-2" d="M25.83,58.87c0-2.66-1.53-4.14-4.38-4.14S17,56.21,17,58.87v5.64c0,3.12,1.14,4.75,4.43,4.75s4.38-1.63,4.38-4.75V58.87m-3.25,5.92c0,.79-.08,2-1.13,2s-1.18-1.18-1.18-2v-5.7c0-.85.13-1.86,1.16-1.86s1.15,1,1.15,1.86Z"/><path class="cls-2" d="M30.58,63.46h1.07c.76,0,1,.61,1.11,1.46s0,2,.07,3.21a3.11,3.11,0,0,0,.19.8h3.55v-.19a1.31,1.31,0,0,1-.32-.48c-.18-.89-.2-3.27-.29-4.38a1.92,1.92,0,0,0-1.61-1.79v0c1.37-.63,1.72-1.68,1.72-3.16,0-2.75-1.33-3.82-4-3.82H27.33V68.93h3.25V63.46m0-5.9c1.59,0,2.27,0,2.27,1.68,0,.85-.22,1.72-1.16,1.72H30.58Z"/><path class="cls-2" d="M44.07,68.94l-.15-1.23h0a2.72,2.72,0,0,1-2.8,1.55c-2.76,0-3.65-1.9-3.65-4.42V59.15c0-3,1.39-4.42,4.37-4.42,2.77,0,4.41,1.19,4.41,4v1H43V59c0-1.18-.15-1.77-1-1.79s-1.25.53-1.25,1.44v6.86a1.07,1.07,0,0,0,1.2,1.23C43,66.76,43,65.88,43,65V63.9H41.87V61.4h4.42v7.54H44.07"/><path class="cls-2" d="M50.54,68.93l.38-2.7h2.56l.46,2.7h3.29l-3-13.86H50.3l-3,13.86h3.27m2.62-5.14H51.28l.94-6.21h0Z"/><polyline class="cls-2" points="61 61.16 60.96 61.2 61.26 68.93 58.17 68.93 58.17 55.07 61.51 55.07 64.03 62.81 64.08 62.81 63.77 55.07 66.86 55.07 66.86 68.93 63.53 68.93 61 61.16"/><rect class="cls-2" x="68.59" y="55.07" width="3.25" height="13.86"/><path class="cls-2" d="M79.05,59.91V59c0-1.18-.42-1.79-1-1.79-1,0-1.26.53-1.26,1.44l0,6.86c0,.77.31,1.23,1.16,1.23,1.11,0,1.21-1.14,1.21-2V63.51h3.25v1.7c0,2.39-1.37,4.05-4.7,4.05-3,0-4.15-1.59-4.15-4.42V59.15c0-3,1.38-4.42,4.36-4.42,2.77,0,4.43,1.19,4.43,4v1.17H79.05"/></g></g></svg>