<svg xmlns="http://www.w3.org/2000/svg" width="99" height="99" viewBox="0 0 99 99"><defs><style>.cls-1{fill:#513628;}.cls-2{fill:#fff;}.cls-3{fill:#008357;}.cls-4{fill:#2a9f7f;}</style></defs><title>usda-organic-logo</title><g id="Layer_2" data-name="Layer 2"><g id="Layer_1-2" data-name="Layer 1"><path class="cls-1" d="M49.5,99A49.5,49.5,0,1,1,99,49.5,49.55,49.55,0,0,1,49.5,99Z"/><path class="cls-2" d="M49.5,4A45.54,45.54,0,1,0,95,49.5,45.59,45.59,0,0,0,49.5,4Z"/><path class="cls-3" d="M24,25.81h4.34V39.75c0,.89.27,1.65,1.5,1.65s1.48-1,1.48-1.77V25.81h4.34V39.19c0,3.13-1.4,5.54-5.84,5.54C26.14,44.73,24,43,24,39.19V25.81"/><path class="cls-3" d="M41.07,38.1v1.31c0,1.06.34,2,1.72,2,1,0,1.45-.91,1.45-1.85,0-1.55-1.28-2.14-2.41-2.83a12.44,12.44,0,0,1-3.28-2.41,5.4,5.4,0,0,1-1.26-3.7c0-3.47,2.09-5.25,5.44-5.25,3.77,0,5.69,2.51,5.49,6h-4c0-1.08,0-2.56-1.43-2.66a1.28,1.28,0,0,0-1.5,1.23c-.12,1.11.44,1.68,1.31,2.27a30.51,30.51,0,0,1,4,2.61c1,.94,1.6,2.17,1.6,4.41,0,3.55-2,5.52-5.57,5.52-4,0-5.64-2.22-5.64-4.66v-2h4"/><path class="cls-3" d="M56,44.29a6.91,6.91,0,0,0,3.84-.86,4.4,4.4,0,0,0,1.85-4v-8.2c0-1.78-.27-3.57-1.95-4.56a10,10,0,0,0-4.88-.86H50.11V44.29H56m-1.5-15.15c2.12,0,2.83.17,2.86,2.34v6c.07,2.46,0,3.65-2.86,3.45Z"/><path class="cls-3" d="M67.26,44.29l.52-3.6h3.4l.62,3.6h4.38l-4-18.48H66.94l-4,18.48h4.36m3.5-6.85H68.25l1.26-8.28h0Z"/><path class="cls-4" d="M92.27,49.5a42.77,42.77,0,1,1-85.53,0H92.27"/><path class="cls-3" d="M6.73,49.5A42.68,42.68,0,0,0,9.07,63.44L92.27,49.5Z"/><path class="cls-3" d="M9.83,65.47a42.76,42.76,0,0,0,7.73,12.46L92.27,49.5Z"/><path class="cls-3" d="M19.11,79.58a42.83,42.83,0,0,0,13.56,9.24L92.27,49.5Z"/><path class="cls-3" d="M35.21,89.81A42.51,42.51,0,0,0,55,91.9L92.27,49.5Z"/><path class="cls-3" d="M92.16,52.32l.1-2.82L58.49,91.31A42.78,42.78,0,0,0,92.16,52.32Z"/><path class="cls-2" d="M25.83,58.87c0-2.66-1.53-4.14-4.38-4.14S17,56.21,17,58.87v5.64c0,3.12,1.15,4.75,4.43,4.75s4.38-1.63,4.38-4.75V58.87m-3.25,5.91c0,.79-.07,2-1.13,2s-1.18-1.18-1.18-2V59.09c0-.85.13-1.87,1.16-1.87s1.15,1,1.15,1.87Z"/><path class="cls-2" d="M30.58,63.46h1.07c.76.06,1,.61,1.11,1.46s0,2,.07,3.22a2.87,2.87,0,0,0,.18.8h3.55v-.19a1.2,1.2,0,0,1-.31-.48c-.19-.89-.2-3.27-.3-4.38a1.91,1.91,0,0,0-1.61-1.79v0c1.37-.63,1.72-1.68,1.72-3.16,0-2.75-1.33-3.83-4-3.83H27.33V68.93h3.25V63.46m0-5.9c1.59,0,2.27,0,2.27,1.68,0,.85-.22,1.72-1.16,1.72H30.58Z"/><path class="cls-2" d="M44.07,68.94l-.15-1.24h0a2.73,2.73,0,0,1-2.81,1.55c-2.75,0-3.64-1.9-3.64-4.42V59.15c0-3,1.39-4.42,4.36-4.42,2.77,0,4.42,1.18,4.42,4v1H43V59c0-1.18-.15-1.77-1-1.79s-1.26.54-1.26,1.44v6.86a1.08,1.08,0,0,0,1.2,1.24C43,66.76,43,65.88,43,65V63.9H41.87V61.4h4.42v7.54H44.07"/><path class="cls-2" d="M50.54,68.93l.39-2.7h2.55l.46,2.7h3.29l-3-13.86H50.3l-3,13.86h3.27m2.62-5.14H51.28l.94-6.21h0Z"/><polyline class="cls-2" points="61 61.16 60.96 61.2 61.26 68.93 58.17 68.93 58.17 55.07 61.51 55.07 64.03 62.81 64.08 62.81 63.77 55.07 66.86 55.07 66.86 68.93 63.53 68.93 61 61.16"/><rect class="cls-2" x="68.59" y="55.07" width="3.25" height="13.86"/><path class="cls-2" d="M79.05,59.91V59c0-1.18-.43-1.79-1-1.79-1,0-1.26.54-1.26,1.44l0,6.86c0,.78.31,1.24,1.16,1.24,1.11,0,1.2-1.15,1.2-2V63.51h3.25v1.7c0,2.38-1.37,4-4.69,4-3,0-4.16-1.59-4.16-4.42V59.15c0-3,1.39-4.42,4.36-4.42,2.77,0,4.44,1.18,4.44,4v1.16H79.05"/></g></g></svg>