<svg xmlns="http://www.w3.org/2000/svg" xmlns:xlink="http://www.w3.org/1999/xlink" width="43.19" height="43.19" viewBox="0 0 43.19 43.19"><defs><style>.cls-1{fill:none;}.cls-2{fill:#fff;}.cls-3{fill:#2a9f7f;}.cls-4{clip-path:url(#clip-path);}.cls-5{fill:#008357;}</style><clipPath id="clip-path"><path class="cls-1" d="M40.95,21.6a19.35,19.35,0,1,1-38.7,0h38.7"/></clipPath></defs><title>usda-organic-logo</title><g id="Layer_2" data-name="Layer 2"><g id="Layer_1-2" data-name="Layer 1"><circle class="cls-2" cx="21.6" cy="21.6" r="21.6"/><path class="cls-3" d="M40.95,21.6a19.35,19.35,0,1,1-38.7,0h38.7"/><g class="cls-4"><polyline class="cls-5" points="40.95 21.6 1.35 21.6 2.96 27.96 40.95 21.6"/><polyline class="cls-5" points="40.95 21.6 3.31 28.89 6.56 34.68 40.95 21.6"/><polyline class="cls-5" points="40.95 21.6 7.51 35.35 13.42 39.76 40.95 21.6"/><polyline class="cls-5" points="40.95 21.6 14.65 40.18 22.91 42.13 40.95 21.6"/><polyline class="cls-5" points="40.95 21.6 25.01 41.33 40.23 41.22 40.95 21.6"/></g><path class="cls-2" d="M21.6,42.43A20.83,20.83,0,1,1,42.42,21.6,20.85,20.85,0,0,1,21.6,42.43ZM21.6,1A20.61,20.61,0,1,0,42.2,21.6,20.63,20.63,0,0,0,21.6,1Z"/><path class="cls-5" d="M10.06,10.88h2v6.31c0,.4.12.75.68.75s.67-.45.67-.8V10.88h2v6.05c0,1.42-.64,2.51-2.64,2.51-1.66,0-2.63-.79-2.63-2.51V10.88"/><path class="cls-5" d="M17.78,16.44V17c0,.48.16.9.78.9.46,0,.66-.41.66-.84,0-.7-.58-1-1.09-1.28a5.63,5.63,0,0,1-1.48-1.09,2.44,2.44,0,0,1-.57-1.67,2.2,2.2,0,0,1,2.46-2.37A2.34,2.34,0,0,1,21,13.39H19.22c0-.49,0-1.16-.65-1.2a.58.58,0,0,0-.68.56c-.06.5.2.76.59,1a13.81,13.81,0,0,1,1.83,1.18,2.45,2.45,0,0,1,.72,2,2.26,2.26,0,0,1-2.52,2.5c-1.8,0-2.55-1-2.55-2.11v-.89h1.82"/><path class="cls-5" d="M24.52,19.24a3.13,3.13,0,0,0,1.74-.39A2,2,0,0,0,27.09,17V13.33a2.16,2.16,0,0,0-.88-2.06A4.53,4.53,0,0,0,24,10.88H21.87v8.36h2.64m-.68-6.86c1,0,1.28.08,1.29,1.06v2.73c0,1.11,0,1.65-1.29,1.56Z"/><path class="cls-5" d="M29.63,19.24l.23-1.63h1.54l.28,1.63h2l-1.82-8.36H29.49l-1.83,8.36h2m1.58-3.1H30.08l.57-3.75h0Z"/><path class="cls-2" d="M10.89,25.84a1.74,1.74,0,0,0-2-1.87,1.76,1.76,0,0,0-2,1.87v2.55c0,1.41.52,2.15,2,2.15s2-.74,2-2.15V25.84M9.42,28.51c0,.36,0,.89-.51.89s-.54-.54-.54-.89V25.94c0-.38.06-.84.53-.84s.52.46.52.84Z"/><path class="cls-2" d="M13,27.91h.49c.34,0,.46.28.5.66s0,.9,0,1.45a1.3,1.3,0,0,0,.08.36h1.61V30.3a.55.55,0,0,1-.14-.22c-.08-.4-.09-1.48-.13-2a.86.86,0,0,0-.73-.81v0a1.35,1.35,0,0,0,.78-1.43c0-1.25-.6-1.73-1.81-1.73H11.56v6.27H13V27.91m0-2.67c.72,0,1,0,1,.76,0,.38-.1.78-.53.78H13Z"/><path class="cls-2" d="M19.14,30.4l-.07-.56h0a1.23,1.23,0,0,1-1.27.7c-1.25,0-1.65-.86-1.65-2V26c0-1.36.63-2,2-2s2,.53,2,1.81v.47H18.64v-.34c0-.54-.07-.8-.46-.81s-.57.24-.57.65v3.1a.49.49,0,0,0,.54.56c.5,0,.52-.4.52-.8v-.49h-.53V27h2V30.4h-1"/><path class="cls-2" d="M22.07,30.39l.18-1.22H23.4l.21,1.22h1.49l-1.36-6.27H22l-1.37,6.27h1.48m1.19-2.32H22.4l.43-2.81h0Z"/><polyline class="cls-2" points="26.8 26.88 26.78 26.89 26.92 30.39 25.52 30.39 25.52 24.11 27.03 24.11 28.17 27.62 28.2 27.62 28.05 24.11 29.45 24.11 29.45 30.39 27.95 30.39 26.8 26.88"/><rect class="cls-2" x="30.24" y="24.12" width="1.47" height="6.27"/><path class="cls-2" d="M35,26.31v-.4c0-.54-.19-.81-.47-.81-.46,0-.57.24-.57.65v3.1c0,.35.14.56.53.56s.54-.52.54-.9v-.57h1.47v.77c0,1.08-.62,1.83-2.12,1.83-1.35,0-1.88-.72-1.88-2V26c0-1.36.63-2,2-2s2,.53,2,1.81v.53H35"/></g></g></svg>